<svg xmlns="http://www.w3.org/2000/svg" viewBox="0 0 750 471">
  <rect width="750" height="471" rx="40" fill="#fff"/>
  <path d="M233.4 197.3c-7.1 8.4-18.6 14.9-30 14-1.5-11.8 4.3-24.3 11-32 7.1-8.7 19.3-15.2 29.3-15.6 1.3 12.1-3.5 24-10.3 33.6zm10.2 17.1c-16.6-.9-30.7 9.4-38.6 9.4-7.9 0-20-9-33.1-8.7-17 .3-32.8 9.9-41.5 25.1-17.7 30.6-4.5 76 12.7 100.9 8.5 12.3 18.5 26.1 31.7 25.6 12.7-.5 17.5-8.2 32.8-8.2 15.3 0 19.6 8.2 33 7.9 13.7-.2 22.3-12.5 30.7-24.9 9.6-14.2 13.5-28 13.7-28.8-.3-.1-26.3-10.1-26.6-40.1-.3-25.1 20.5-37.1 21.4-37.8-11.6-17.2-29.8-19.1-36.2-19.4z" fill="#000"/>
  <path d="M409.6 176.8c34.1 0 57.8 23.5 57.8 57.7 0 34.4-24.1 57.9-58.5 57.9h-37.8v60h-28.8V176.8h67.3zm-38.5 92.3h31.4c23.7 0 37.2-12.8 37.2-34.5 0-21.7-13.5-34.5-37.2-34.5h-31.4v69z" fill="#000"/>
  <path d="M480.5 309.6c0-22.4 17.2-36.2 47.7-37.8l35.2-2v-10c0-14.2-9.6-22.7-25.6-22.7-15.1 0-24.9 7.5-27.2 19h-26.4c1.7-24 21.6-41.7 54.6-41.7 32.2 0 52.5 17.1 52.5 43.6v91.4h-26.7v-21.8h-.6c-7.9 14.6-25 23.6-42.8 23.6-26.7 0-40.7-15.2-40.7-41.6zm82.9-12.7v-10.2l-31.7 2c-15.8 1-24.7 8.5-24.7 19.7 0 11.4 9.3 18.9 23.5 18.9 18.4 0 32.9-12.7 32.9-30.4z" fill="#000"/>
  <path d="M618.7 371.5l-3-2.8v-17.3c8.1 5.7 17.8 8.8 27.8 8.8 22.4 0 37.5-17.3 37.5-44.1 0-26.5-15.3-44-37.8-44-10.7 0-19.9 3.8-27.2 11.5h-.6l-1.3-9.8h-24.3V371.5h28.9zm22-82.2c15.6 0 25.9 12.7 25.9 31.1 0 18.6-10.3 31.4-25.9 31.4-15.3 0-25.7-12.3-25.7-31.1 0-19.1 10.4-31.4 25.7-31.4z" fill="#000"/>
</svg>
