<svg xmlns="http://www.w3.org/2000/svg" viewBox="0 0 750 471">
  <rect width="750" height="471" rx="40" fill="#fff"/>
  <path d="M358.3 249.2V308h-18.6V163.2h49.3c12.5 0 23.1 4.3 31.8 12.8 8.9 8.5 13.3 18.8 13.3 31 0 12.4-4.4 22.8-13.3 31.2-8.6 8.4-19.2 12.5-31.8 12.5h-30.7v-1.5zm0-68.4v50.8h31.2c7.5 0 13.8-2.8 18.7-8.3 5.1-5.5 7.6-12.1 7.6-19.5-.1-7.3-2.5-13.4-7.6-18.6-5-5.6-11.2-8.3-18.7-8.3h-31.2v3.9z" fill="#3C4043"/>
  <path d="M484.3 213.3c13.7 0 24.5 3.7 32.3 11.1 7.8 7.4 11.7 17.5 11.7 30.3V308h-17.8v-11.8h-.8c-7.6 11.5-17.8 17.2-30.4 17.2-10.7 0-19.7-3.2-27-9.5-7.2-6.3-10.9-14.3-10.9-23.8 0-10.1 3.8-18.1 11.4-23.9 7.6-5.9 17.8-8.8 30.5-8.8 10.9 0 19.8 2 26.8 6v-4.2c0-7.5-2.9-13.8-8.6-18.8-5.7-5.1-12.4-7.6-20-7.6-11.6 0-20.7 4.9-27.3 14.7l-16.4-10.3c9.7-14.5 24.1-21.9 46.5-21.9zm-23.8 67.2c0 5.7 2.5 10.4 7.4 14.1 4.9 3.8 10.6 5.6 17.2 5.6 9.3 0 17.4-3.5 24.4-10.4 7-6.9 10.5-15.1 10.5-24.5-5.6-4.6-13.5-6.9-23.6-6.9-7.4 0-13.6 1.8-18.6 5.5-5.1 3.8-7.3 8.4-7.3 14.3v2.3z" fill="#3C4043"/>
  <path d="M623.8 217l-62.2 143.1h-19.2l23.1-50.3-41-92.8h20.2l29.5 71.1h.4l28.7-71.1h20.5z" fill="#3C4043"/>
  <path d="M288.8 243.2c0-5.2-.4-10.2-1.3-15h-73.2v28.4h41.8c-1.8 9.7-7.3 17.9-15.5 23.4v19.4h25.1c14.7-13.5 23.1-33.4 23.1-56.2z" fill="#4285F4"/>
  <path d="M214.3 300c21 0 38.6-6.9 51.4-18.9l-25.1-19.4c-6.9 4.7-15.8 7.4-26.4 7.4-20.3 0-37.4-13.7-43.5-32.1h-25.9v20c12.8 25.3 38.8 43 69.5 43z" fill="#34A853"/>
  <path d="M170.8 236.9c-1.6-4.7-2.5-9.7-2.5-14.9s.9-10.2 2.5-14.9v-20h-25.9c-5.3 10.5-8.3 22.4-8.3 34.9s3 24.4 8.3 34.9l25.9-20z" fill="#FBBC04"/>
  <path d="M214.3 175c11.4 0 21.7 3.9 29.8 11.7l22.3-22.3c-13.5-12.6-31.1-20.3-52.1-20.3-30.7 0-56.7 17.7-69.5 43l25.9 20c6.1-18.4 23.2-32.1 43.6-32.1z" fill="#EA4335"/>
</svg>
