<svg xmlns="http://www.w3.org/2000/svg" viewBox="0 0 468 222.5">
  <rect width="468" height="222.5" rx="25" fill="#635BFF"/>
  <path d="M125.7 129.1c0-17.5 8.5-31.3 24.7-31.3 10.8 0 17 5.4 20.2 9.1l.1-7.4h21.2v85.4h-21.2l-.1-7.5c-3.3 3.9-9.5 9.3-20.3 9.3-16 0-24.6-13.8-24.6-31.4v-26.2zm45.2 13.3v-13.6c-1.5-2.5-7.3-9.6-15.5-9.6-9.3 0-15.2 7.9-15.2 18v13.6c0 10 5.9 18 15.2 18 8.2 0 14-7.1 15.5-9.6v-16.8z" fill="#fff"/>
  <path d="M109.3 99.5h-22.8l-1 90H63.2v-90H43.8V81.2h19.4V58.7c0-18.5 10.7-28.9 28.2-28.9 6.9 0 13.2 1.5 17.9 3.9V53c-3.6-1.6-8.5-3-14.1-3-8.9 0-13.7 5.8-13.7 15v16.2h27.8v18.3z" fill="#fff"/>
  <path d="M199.5 99.5h21.3v87h-21.3v-87zm10.7-35c7.5 0 13.4 6 13.4 13.2 0 7.4-5.9 13.2-13.4 13.2-7.4 0-13.3-5.8-13.3-13.2 0-7.2 5.9-13.2 13.3-13.2z" fill="#fff"/>
  <path d="M239.5 186.5V99.5h21.2l.1 7.5c3.3-3.9 9.5-9.3 20.3-9.3 16.1 0 24.6 13.8 24.6 31.3v26.2c0 17.6-8.5 31.4-24.7 31.4-10.8 0-17-5.4-20.2-9.3l-.1 65h-21.2v-55.8zm45-43.2V130c0-10.1-5.9-18-15.2-18-8.2 0-14 7.1-15.5 9.6v35.2c1.5 2.5 7.3 9.6 15.5 9.6 9.3 0 15.2-8 15.2-18v-5.1z" fill="#fff"/>
  <path d="M367 186.5c-24.3 0-40.2-16.4-40.2-40v-6.2c0-23.6 15.9-42.6 39.5-42.6 22.9 0 37.4 17.1 37.4 40.2v11.5h-55.6c1.3 11.2 9.3 19.1 21 19.1 9.2 0 16.7-4.9 20.2-11.5l16.8 10.2c-6.3 11.2-19.4 19.3-39.1 19.3zm-18.6-52.2h34.3c-.4-10.3-6.4-17.8-16.5-17.8-10.7 0-16.4 7-17.8 17.8z" fill="#fff"/>
</svg>
