<svg xmlns="http://www.w3.org/2000/svg" viewBox="0 0 750 471">
  <rect width="750" height="471" rx="40" fill="#fff"/>
  <path d="M278.2 334.2h-60.6l37.9-233.9h60.6L278.2 334.2z" fill="#3C58BF"/>
  <path d="M524.3 105.2c-12-4.5-30.8-9.3-54.3-9.3-59.8 0-101.9 31.8-102.3 77.3-.4 33.7 30 52.4 52.9 63.6 23.6 11.5 31.5 18.8 31.4 29.1-.2 15.7-18.8 22.9-36.2 22.9-24.2 0-37.1-3.5-57-12.2l-7.8-3.7-8.5 52.4c14.1 6.5 40.3 12.2 67.4 12.5 63.6 0 104.9-31.4 105.4-80 .3-26.7-15.9-47-50.9-63.7-21.2-10.8-34.2-18.1-34.1-29.1 0-9.7 11-20.1 34.8-20.1 19.8-.3 34.2 4.2 45.4 9l5.4 2.7 8.4-51.4z" fill="#3C58BF"/>
  <path d="M661.6 100.3h-46.8c-14.5 0-25.3 4.2-31.7 19.5L487 334.2h63.6s10.4-28.8 12.7-35.2h77.7c1.8 8.2 7.4 35.2 7.4 35.2H704L661.6 100.3zm-74.8 183.3c5-13.5 24.2-65.6 24.2-65.6-.4.6 5-13.6 8-22.4l4.1 20.3s11.6 56.1 14.1 67.7h-50.4z" fill="#3C58BF"/>
  <path d="M232.8 100.3L173.5 261l-6.4-32.5c-11-37.5-45.5-78.2-84-98.5l54.2 204h64l95.3-233.7h-63.8z" fill="#3C58BF"/>
  <path d="M119.7 100.3H23.4l-.8 4.5C96.7 121.4 149 163.4 167.2 228.5l-18.5-93.8c-3.2-15-14.2-19.1-28.9-19.5l-.1-14.9z" fill="#F9A533"/>
</svg>
