<svg version="1.0" preserveAspectRatio="xMidYMid meet" height="70" viewBox="0 0 337.5 52.499999" zoomAndPan="magnify" width="450" xmlns:xlink="http://www.w3.org/1999/xlink" xmlns="http://www.w3.org/2000/svg"><defs><clipPath id="384fa208b6"><path clip-rule="nonzero" d="M 66.136719 6 L 330.617188 6 L 330.617188 45.9375 L 66.136719 45.9375 Z M 66.136719 6"></path></clipPath><clipPath id="9a20729270"><path clip-rule="nonzero" d="M 1.34375 0 L 53.5 0 L 53.5 52.003906 L 1.34375 52.003906 Z M 1.34375 0"></path></clipPath><clipPath id="328feba27d"><path clip-rule="nonzero" d="M 23.40625 22.070312 L 31.230469 22.070312 L 31.230469 29.886719 L 23.40625 29.886719 Z M 23.40625 22.070312"></path></clipPath></defs><g clip-path="url(#384fa208b6)"><path fill-rule="nonzero" fill-opacity="1" d="M 92.648438 45.230469 L 90.074219 37.675781 L 76.761719 37.675781 L 74.214844 45.230469 L 66.136719 45.230469 L 79.878906 8.5625 L 86.917969 8.5625 L 100.722656 45.230469 Z M 83.398438 17.84375 L 78.816406 31.558594 L 88.023438 31.558594 Z M 112.253906 8.5625 L 112.253906 45.230469 L 104.648438 45.230469 L 104.648438 8.5625 Z M 153.585938 33.015625 L 161.191406 33.015625 C 160.890625 36.960938 159.421875 40.058594 156.792969 42.316406 C 154.144531 44.585938 150.652344 45.722656 146.324219 45.722656 C 141.597656 45.722656 137.882812 44.140625 135.175781 40.972656 C 132.453125 37.820312 131.09375 33.476562 131.09375 27.949219 L 131.09375 25.707031 C 131.09375 22.183594 131.726562 19.082031 132.988281 16.40625 C 134.238281 13.71875 136.019531 11.65625 138.335938 10.222656 C 140.667969 8.789062 143.367188 8.070312 146.433594 8.070312 C 150.691406 8.070312 154.121094 9.207031 156.722656 11.476562 C 159.324219 13.734375 160.828125 16.90625 161.234375 21.003906 L 153.632812 21.003906 C 153.453125 18.640625 152.789062 16.929688 151.648438 15.871094 C 150.503906 14.792969 148.765625 14.257812 146.433594 14.257812 C 143.894531 14.257812 141.996094 15.160156 140.75 16.96875 C 139.484375 18.777344 138.839844 21.578125 138.808594 25.371094 L 138.808594 28.128906 C 138.808594 32.089844 139.410156 34.980469 140.613281 36.800781 C 141.816406 38.640625 143.71875 39.558594 146.324219 39.558594 C 148.683594 39.558594 150.4375 39.027344 151.578125 37.96875 C 152.738281 36.890625 153.40625 35.242188 153.585938 33.015625 Z M 172.832031 6.570312 L 172.832031 20.957031 C 174.773438 18.640625 177.21875 17.484375 180.164062 17.484375 C 186.105469 17.484375 189.121094 20.914062 189.210938 27.769531 L 189.210938 45.230469 L 181.878906 45.230469 L 181.878906 27.972656 C 181.878906 26.417969 181.542969 25.269531 180.863281 24.519531 C 180.1875 23.773438 179.066406 23.398438 177.503906 23.398438 C 175.351562 23.398438 173.796875 24.222656 172.832031 25.867188 L 172.832031 45.230469 L 165.523438 45.230469 L 165.523438 6.570312 Z M 207.351562 45.722656 C 203.320312 45.722656 200.050781 44.496094 197.539062 42.046875 C 195.011719 39.597656 193.746094 36.332031 193.746094 32.253906 L 193.746094 31.558594 C 193.746094 28.824219 194.273438 26.375 195.328125 24.207031 C 196.394531 22.054688 197.90625 20.398438 199.863281 19.230469 C 201.816406 18.066406 204.042969 17.484375 206.539062 17.484375 C 210.285156 17.484375 213.234375 18.65625 215.382812 21.003906 C 217.535156 23.347656 218.609375 26.679688 218.609375 30.996094 L 218.609375 33.980469 L 201.171875 33.980469 C 201.394531 35.757812 202.109375 37.183594 203.3125 38.257812 C 204.503906 39.320312 206.007812 39.851562 207.828125 39.851562 C 210.652344 39.851562 212.859375 38.835938 214.4375 36.800781 L 218.046875 40.8125 C 216.949219 42.351562 215.460938 43.554688 213.578125 44.421875 C 211.699219 45.289062 209.625 45.722656 207.351562 45.722656 Z M 206.519531 23.378906 C 205.058594 23.378906 203.878906 23.863281 202.976562 24.835938 C 202.074219 25.804688 201.492188 27.195312 201.238281 29.003906 L 211.4375 29.003906 L 211.4375 28.441406 C 211.390625 26.828125 210.949219 25.582031 210.105469 24.699219 C 209.261719 23.820312 208.066406 23.378906 206.519531 23.378906 Z M 232.125 45.230469 L 224.769531 45.230469 L 224.769531 23.332031 L 220.710938 23.332031 L 220.710938 17.976562 L 224.769531 17.976562 L 224.769531 15.667969 C 224.769531 12.621094 225.65625 10.25 227.433594 8.5625 C 229.191406 6.875 231.660156 6.03125 234.832031 6.03125 C 235.855469 6.03125 237.097656 6.195312 238.554688 6.523438 L 238.488281 12.171875 C 237.886719 12.023438 237.140625 11.949219 236.253906 11.949219 C 233.503906 11.949219 232.125 13.234375 232.125 15.800781 L 232.125 17.976562 L 237.585938 17.976562 L 237.585938 23.332031 L 232.125 23.332031 Z M 269.039062 32.296875 L 262.382812 32.296875 L 262.382812 45.230469 L 254.777344 45.230469 L 254.777344 8.5625 L 269.171875 8.5625 C 271.941406 8.5625 274.375 9.070312 276.484375 10.085938 C 278.589844 11.089844 280.207031 12.515625 281.332031 14.367188 C 282.460938 16.222656 283.027344 18.335938 283.027344 20.710938 C 283.027344 24.296875 281.792969 27.128906 279.324219 29.203125 C 276.84375 31.265625 273.414062 32.296875 269.039062 32.296875 Z M 262.382812 14.683594 L 262.382812 26.203125 L 269.171875 26.203125 C 271.1875 26.203125 272.722656 25.730469 273.773438 24.789062 C 274.828125 23.847656 275.355469 22.503906 275.355469 20.753906 C 275.355469 18.960938 274.820312 17.511719 273.753906 16.40625 C 272.683594 15.300781 271.21875 14.726562 269.351562 14.683594 Z M 303.285156 17.820312 L 303.171875 24.8125 C 302.179688 24.675781 301.300781 24.609375 300.535156 24.609375 C 297.765625 24.609375 295.953125 25.535156 295.097656 27.390625 L 295.097656 45.230469 L 287.765625 45.230469 L 287.765625 17.976562 L 294.691406 17.976562 L 294.894531 21.226562 C 296.367188 18.730469 298.40625 17.484375 301.007812 17.484375 C 301.804688 17.484375 302.5625 17.59375 303.285156 17.820312 Z M 304.640625 31.671875 L 304.640625 31.355469 C 304.640625 28.652344 305.167969 26.238281 306.21875 24.117188 C 307.257812 22.011719 308.761719 20.375 310.730469 19.210938 C 312.703125 18.058594 314.988281 17.484375 317.589844 17.484375 C 321.289062 17.484375 324.3125 18.605469 326.660156 20.84375 C 328.992188 23.101562 330.292969 26.15625 330.5625 30.011719 L 330.609375 31.871094 C 330.609375 36.054688 329.4375 39.410156 327.089844 41.933594 C 324.742188 44.460938 321.589844 45.722656 317.636719 45.722656 C 313.695312 45.722656 310.542969 44.46875 308.183594 41.957031 C 305.820312 39.433594 304.640625 36.003906 304.640625 31.671875 Z M 311.972656 31.871094 C 311.972656 34.457031 312.460938 36.4375 313.4375 37.8125 C 314.417969 39.171875 315.816406 39.851562 317.636719 39.851562 C 319.410156 39.851562 320.800781 39.179688 321.808594 37.832031 C 322.800781 36.488281 323.300781 34.328125 323.300781 31.355469 C 323.300781 28.816406 322.800781 26.851562 321.808594 25.460938 C 320.800781 24.074219 319.394531 23.378906 317.589844 23.378906 C 315.800781 23.378906 314.417969 24.066406 313.4375 25.441406 C 312.460938 26.828125 311.972656 28.972656 311.972656 31.871094 Z M 311.972656 31.871094" fill="#0d131a"></path></g><g clip-path="url(#9a20729270)"><path fill-rule="nonzero" fill-opacity="1" d="M 27.421875 0 C 13.019531 0 1.34375 11.675781 1.34375 26.078125 C 1.34375 40.480469 13.019531 52.15625 27.421875 52.15625 C 41.824219 52.15625 53.5 40.480469 53.5 26.078125 C 53.5 11.675781 41.824219 0 27.421875 0 Z M 25.351562 9.949219 C 30.957031 7.652344 37.367188 10.339844 39.664062 15.945312 L 37.707031 16.746094 C 35.851562 12.21875 30.679688 10.050781 26.152344 11.90625 C 21.621094 13.757812 19.453125 18.929688 21.308594 23.460938 L 21.242188 23.488281 L 22.402344 26.324219 C 21.113281 26.847656 19.644531 26.234375 19.117188 24.945312 C 18.898438 24.414062 18.878906 23.847656 19.019531 23.332031 C 18.71875 22.359375 18.5625 21.371094 18.535156 20.390625 C 16.984375 21.644531 16.367188 23.808594 17.160156 25.746094 C 18.128906 28.113281 20.835938 29.246094 23.203125 28.277344 L 24.003906 30.234375 C 20.554688 31.648438 16.617188 29.996094 15.207031 26.546875 C 13.808594 23.140625 15.410156 19.253906 18.777344 17.800781 C 19.515625 14.382812 21.867188 11.371094 25.351562 9.949219 Z M 11.292969 28.148438 C 8.996094 22.539062 11.683594 16.132812 17.292969 13.835938 L 18.09375 15.792969 C 13.5625 17.648438 11.394531 22.820312 13.25 27.347656 C 15.101562 31.875 20.273438 34.046875 24.804688 32.191406 L 24.832031 32.257812 L 27.667969 31.097656 C 28.191406 32.386719 27.578125 33.855469 26.289062 34.382812 C 25.757812 34.601562 25.191406 34.621094 24.675781 34.480469 C 23.703125 34.78125 22.714844 34.9375 21.738281 34.964844 C 22.988281 36.515625 25.152344 37.132812 27.089844 36.339844 C 29.457031 35.371094 30.59375 32.664062 29.625 30.296875 L 31.578125 29.496094 C 32.992188 32.945312 31.339844 36.882812 27.890625 38.292969 C 24.484375 39.691406 20.597656 38.089844 19.144531 34.722656 C 15.726562 33.984375 12.71875 31.632812 11.292969 28.148438 Z M 29.492188 42.207031 C 23.886719 44.503906 17.476562 41.816406 15.183594 36.207031 L 17.136719 35.40625 C 18.992188 39.9375 24.164062 42.105469 28.691406 40.25 C 33.222656 38.398438 35.390625 33.226562 33.535156 28.695312 L 33.605469 28.667969 L 32.441406 25.832031 C 33.730469 25.308594 35.199219 25.921875 35.726562 27.210938 C 35.945312 27.742188 35.964844 28.308594 35.824219 28.824219 C 36.125 29.796875 36.285156 30.785156 36.308594 31.761719 C 37.859375 30.511719 38.476562 28.347656 37.683594 26.410156 C 36.714844 24.042969 34.007812 22.90625 31.640625 23.875 L 30.839844 21.921875 C 34.289062 20.507812 38.226562 22.160156 39.640625 25.609375 C 41.035156 29.015625 39.433594 32.902344 36.066406 34.355469 C 35.332031 37.773438 32.976562 40.78125 29.492188 42.207031 Z M 37.554688 38.316406 L 36.753906 36.363281 C 41.28125 34.507812 43.449219 29.335938 41.59375 24.808594 C 39.742188 20.277344 34.570312 18.109375 30.039062 19.964844 L 30.011719 19.894531 L 27.175781 21.058594 C 26.652344 19.769531 27.265625 18.300781 28.554688 17.773438 C 29.085938 17.554688 29.652344 17.535156 30.167969 17.675781 C 31.140625 17.375 32.128906 17.214844 33.109375 17.191406 C 31.855469 15.640625 29.691406 15.023438 27.753906 15.816406 C 25.386719 16.785156 24.253906 19.492188 25.222656 21.855469 L 23.265625 22.660156 C 21.851562 19.210938 23.503906 15.273438 26.953125 13.859375 C 30.359375 12.464844 34.246094 14.066406 35.699219 17.433594 C 39.117188 18.167969 42.128906 20.523438 43.550781 24.003906 C 45.847656 29.613281 43.160156 36.023438 37.554688 38.316406 Z M 37.554688 38.316406" fill="#000000"></path></g><g clip-path="url(#328feba27d)"><path fill-rule="nonzero" fill-opacity="1" d="M 31.265625 26 C 31.265625 28.167969 29.503906 29.925781 27.335938 29.925781 C 25.167969 29.925781 23.40625 28.167969 23.40625 26 C 23.40625 23.832031 25.167969 22.070312 27.335938 22.070312 C 29.503906 22.070312 31.265625 23.832031 31.265625 26 Z M 31.265625 26" fill="#ffde59"></path></g></svg>